<svg width="200" height="200" viewBox="0 0 200 200" fill="none" xmlns="http://www.w3.org/2000/svg">
<rect width="200" height="200" rx="25" fill="#009A8D"/>
<path d="M111.813 61.4057C108.152 51.8574 105.145 43.9682 105.145 43.8666C105.145 43.7989 109.224 43.7312 114.244 43.7312C121.2 43.765 123.448 43.8666 123.945 44.2052C124.599 44.6792 125.096 45.8982 137.438 77.4211C148.263 105.05 148.917 106.709 149.126 106.709C149.23 106.709 150.015 104.847 150.878 102.545C151.714 100.276 155.846 89.4073 160.056 78.4369C164.265 67.4326 168.92 55.2095 170.41 51.2479L173.103 44.0697H182.778H192.479L190.57 49.0471C189.551 51.7897 181 74.0014 171.587 98.4139C162.2 122.793 153.283 146.02 151.793 149.948C150.302 153.909 148.995 157.16 148.864 157.16C148.864 157.16 107.446 157.837 107.367 157.837C107.263 157.837 102.661 146.02 97.1173 131.596C90.9987 115.648 86.8412 105.22 86.5536 104.983C86.2398 104.779 82.3437 104.61 76.2251 104.576C65.1906 104.509 65.8705 104.678 65.9751 101.8L66.0535 100.107L84.4879 100.005C97.2742 99.9376 103.236 100.005 103.916 100.276C104.831 100.615 104.988 100.919 106.138 103.865C106.792 105.626 107.446 107.014 107.55 106.98C107.655 106.913 110.165 100.581 113.12 92.861L118.506 78.8094L111.813 61.4057Z" fill="white"/>
<path d="M63.7031 44.6368C63.7031 44.7384 64.4316 46.5333 65.3562 48.5992C66.2527 50.6989 68.1019 54.9661 69.4468 58.1496C70.7916 61.2992 72.5567 65.4309 73.3692 67.2936C74.1817 69.1563 75.4986 72.272 76.3391 74.2363C77.1516 76.2005 78.1042 78.368 78.4685 79.0453L79.1129 80.3323H89.0592C94.5226 80.3323 99.0054 80.2307 99.0054 80.0613C99.0054 79.8243 90.9644 60.4864 86.2854 49.5136L84.2121 44.6029L73.9576 44.5013C68.326 44.4675 63.7031 44.5013 63.7031 44.6368Z" fill="white"/>
<path d="M51.235 45.7883C47.7047 46.9736 45.4073 48.0235 42.4094 49.8523C39.9438 51.3424 35.8813 54.3904 34.4243 55.8805C27.4199 62.9248 22.9091 70.3755 19.7711 79.9936C15.9326 91.8808 15.6244 105.394 18.9305 117.89C23.3573 134.722 34.5644 148.303 48.6293 153.992C57.2588 157.447 66.8969 157.785 75.4703 154.941C83.2312 152.367 89.9554 147.761 95.9792 140.886L97.8845 138.752L96.6797 135.806C96.0073 134.18 95.3909 132.758 95.3348 132.656C95.2508 132.589 94.7184 133.3 94.1301 134.282C91.3843 138.786 86.5933 142.241 80.2333 144.306C76.4229 145.526 74.0414 145.83 69.1663 145.83C64.2072 145.797 61.6015 145.322 57.7631 143.697C51.7953 141.191 45.6314 135.772 41.849 129.71C39.8317 126.459 39.2994 125.273 38.0106 121.006C35.4049 112.302 34.6205 103.057 35.545 92.4565C36.9739 76.2344 41.765 64.2117 50.6466 54.6613C51.7393 53.476 53.5324 51.8165 54.5971 50.9699C55.6898 50.1232 63.3395 49.506 63.3956 49.4721C63.5917 49.2689 61.9686 44.6893 61.6884 44.7231C61.4923 44.7231 52.7759 45.2464 51.235 45.7883Z" fill="white"/>
<path d="M138.735 107.132L133.598 103.039C130.772 100.787 128.186 98.7263 127.851 98.4612L127.242 97.9784L125.246 100.258L123.248 102.536V108.294C123.248 111.462 123.255 114.052 123.263 114.052C123.27 114.052 124.5 113.181 125.992 112.118L128.709 110.184L128.718 105.705L128.727 101.226L132.906 104.576L137.085 107.927L137.087 117.677L137.088 127.427L137.911 128.176L138.735 128.926V118.028V107.132Z" fill="#009A8D"/>
<path d="M133.513 118.766C133.42 118.692 131.975 117.52 130.298 116.161C128.621 114.805 127.246 113.694 127.244 113.694C127.244 113.694 124.896 115.534 122.031 117.78L116.818 121.868V126.993V132.119H117.606H118.394V127.514V122.911L121.613 120.412C123.384 119.038 125.002 117.782 125.208 117.621L125.585 117.329V136.151V154.972H122.823H120.06V146.921V138.869L121.944 136.741C122.98 135.572 123.828 134.611 123.828 134.607C123.828 134.602 122.203 134.598 120.218 134.598H116.608L114.983 136.413L113.36 138.23L113.358 148.033V157.837H128.709H144.06V156.786V155.734L139.601 152.88L135.139 150.026L135.134 152.434L135.13 154.843H132.178H129.225L129.229 143.48L129.235 132.115L131.49 130.82C132.73 130.108 133.756 129.516 133.77 129.505C133.792 129.487 133.786 128.729 133.737 124.193L133.678 118.902L133.513 118.766Z" fill="#009A8D"/>
<path d="M144.06 134.806L139.648 131.79C137.221 130.131 135.212 128.76 135.183 128.741L135.13 128.708V130.619V132.532L139.572 135.287C142.013 136.803 144.022 138.049 144.037 138.055C144.057 138.065 144.06 137.79 144.06 136.436V134.806Z" fill="#009A8D"/>
<path d="M144.058 140.064L139.825 137.439C137.498 135.995 135.489 134.748 135.362 134.67L135.13 134.526V136.22V137.915L139.074 140.272C141.242 141.568 143.25 142.769 143.538 142.941L144.06 143.253V141.659L144.058 140.064Z" fill="#009A8D"/>
<path d="M144.06 145.408L139.61 142.607C137.163 141.067 135.154 139.803 135.145 139.802C135.138 139.799 135.13 140.502 135.13 141.365V142.934L139.574 145.769C142.015 147.328 144.026 148.61 144.038 148.616C144.055 148.625 144.06 148.301 144.06 147.017V145.408Z" fill="#009A8D"/>
<path d="M144.06 150.552L139.612 147.729C137.163 146.176 135.154 144.904 135.147 144.902C135.138 144.899 135.13 145.657 135.13 146.586V148.275L139.546 151.063C141.974 152.598 143.982 153.866 144.011 153.883L144.06 153.913V152.232V150.552Z" fill="#009A8D"/>
</svg>
